<svg role="img" width="24" height="24" viewBox="0 0 24 24" fill="#607b96" xmlns="http://www.w3.org/2000/svg"><path class="st0" d="M21.8,24c-6.53,0-13.06,0-19.59,0c-0.03-0.01-0.05-0.04-0.08-0.04C0.84,23.7,0,22.67,0,21.37
    C0,15.1,0,8.84,0,2.57C0,1.15,1.15,0,2.57,0c6.28,0,12.56,0,18.84,0c1.11,0,2.08,0.69,2.44,1.74C23.91,1.89,23.95,2.05,24,2.2
    c0,6.53,0,13.06,0,19.59c-0.02,0.03-0.04,0.07-0.04,0.1c-0.22,0.99-0.81,1.65-1.76,1.99C22.06,23.93,21.93,23.96,21.8,24z
     M8.05,6.83C5.22,6.82,2.92,9.11,2.9,11.96c-0.02,2.86,2.25,5.18,5.1,5.21c2.83,0.03,5.16-2.28,5.17-5.14
    C13.18,9.17,10.9,6.85,8.05,6.83z M13.67,12c0,0.9,0.11,1.78,0.4,2.63c0.22,0.64,0.51,1.24,1,1.72c0.73,0.71,1.6,0.7,2.33-0.01
    c0.37-0.36,0.64-0.79,0.82-1.27c0.75-1.91,0.77-3.85,0.13-5.8c-0.22-0.66-0.54-1.26-1.09-1.72C16.63,7,15.85,6.97,15.23,7.54
    c-0.33,0.3-0.61,0.67-0.82,1.06C13.85,9.65,13.67,10.81,13.67,12z M21.16,11.99c-0.08-0.91-0.14-1.82-0.26-2.72
    c-0.06-0.44-0.21-0.88-0.36-1.3c-0.05-0.13-0.21-0.3-0.33-0.31c-0.11,0-0.26,0.17-0.33,0.3c-0.11,0.2-0.19,0.43-0.24,0.66
    c-0.46,2.16-0.45,4.34-0.05,6.51c0.06,0.33,0.18,0.66,0.32,0.97c0.17,0.35,0.4,0.35,0.59,0.01c0.09-0.17,0.17-0.35,0.22-0.54
    C21.04,14.4,21.09,13.2,21.16,11.99z"></path></svg>